<svg width="12" height="20" viewBox="0 0 12 20" fill="none" xmlns="http://www.w3.org/2000/svg">
<path fill-rule="evenodd" clip-rule="evenodd" d="M11 6C11 8.76142 8.76142 11 6 11C3.23858 11 1 8.76142 1 6C1 3.23858 3.23858 1 6 1C8.76142 1 11 3.23858 11 6ZM7.4797 11.8162C7.00639 11.9362 6.51064 12 6 12C2.68629 12 0 9.31371 0 6C0 2.68629 2.68629 0 6 0C9.31371 0 12 2.68629 12 6C12 8.44979 10.5318 10.5567 8.42733 11.4887L11.3671 18.3481C11.4758 18.6019 11.3583 18.8959 11.1045 19.0046C10.8506 19.1134 10.5567 18.9958 10.4479 18.742L7.4797 11.8162Z" fill="black"/>
</svg>
