<svg width="94" height="30" viewBox="0 0 94 30" fill="none" xmlns="http://www.w3.org/2000/svg">
<path fill-rule="evenodd" clip-rule="evenodd" d="M73.8577 7.88996C74.6032 9.28657 76.0033 10.0121 77.4579 10.0121C78.8034 10.0121 79.7307 9.48609 79.7307 8.48851C79.7307 7.65417 79.0943 7.3821 78.2216 7.16445L75.9124 6.63845C74.3123 6.27569 73.0577 5.38694 73.0577 3.48247C73.0577 1.41475 74.6941 0 77.1306 0C79.1671 0 80.658 0.906892 81.549 2.17654L80.1307 3.66384C79.5853 2.62999 78.6034 1.85006 77.1306 1.85006C75.9851 1.85006 75.1851 2.3942 75.1851 3.33736C75.1851 4.15357 75.8033 4.4075 76.6397 4.60701L78.767 5.11487C80.7308 5.56832 81.8763 6.47521 81.8763 8.39782C81.8763 10.6106 79.9307 11.8621 77.4579 11.8621C75.2942 11.8621 73.5123 10.9915 72.5304 9.5405L73.8577 7.88996ZM15.6734 11.6445L11.9459 0.217661H14.4188L17.0552 8.88755H17.128L19.7281 0.217661H22.0918L18.3644 11.6445H15.6734ZM33.4196 11.6445H25.2193V0.217661H33.256V2.15841H27.4739V4.82467H31.565V6.74729H27.4739V9.70375H33.4196V11.6445ZM43.5837 0.217661V8.05321L39.3654 0.217661H36.6743V11.6445H38.7471V2.95648L43.5655 11.6445H45.6565V0.217661H43.5837ZM48.7112 7.03749V0.217661H51.0022V6.74729C51.0022 8.815 51.6386 9.92141 53.2387 9.92141C54.8387 9.92141 55.4751 8.815 55.4751 6.74729V0.217661H57.7661V7.03749C57.7661 10.3749 55.766 11.8622 53.2387 11.8622C50.6931 11.8622 48.7112 10.3749 48.7112 7.03749ZM61.439 11.6445H69.6393V9.70375H63.6936V6.74729H67.7847V4.82467H63.6936V2.15841H69.4757V0.217661H61.439V11.6445ZM15.8551 20.3507V29.7823H18.128V20.3507H21.9645V18.3555H12.0732V20.3507H15.8551ZM30.9468 26.971H27.1103L26.2557 29.7823H24.0192L27.6921 18.3555H30.4922L34.1651 29.7823H31.8014L30.9468 26.971ZM27.6557 25.2116H30.4013L29.0558 20.8222H28.9831L27.6557 25.2116ZM36.6379 18.3555V25.1753C36.6379 28.5127 38.6198 30 41.1653 30C43.6927 30 45.6928 28.5127 45.6928 25.1753V18.3555H43.4018V24.8851C43.4018 26.9528 42.7654 28.0592 41.1653 28.0592C39.5653 28.0592 38.9289 26.9528 38.9289 24.8851V18.3555H36.6379ZM52.075 29.7823V20.3507H48.293V18.3555H58.1843V20.3507H54.3478V29.7823H52.075ZM63.33 26.971H67.1665L68.0211 29.7823H70.3848L66.7119 18.3555H63.9118L60.2389 29.7823H62.4754L63.33 26.971ZM66.621 25.2116H63.8755L65.2028 20.8222H65.2755L66.621 25.2116ZM72.8941 29.7823V18.3555H75.1851V22.9081H79.5853V18.3555H81.8763V29.7823H79.5853V24.8851H75.1851V29.7823H72.8941ZM85.2582 27.8053V29.7823H93.6585V27.8053H90.6039V20.3325H93.6585V18.3555H85.2582V20.3325H88.3128V27.8053H85.2582ZM7.8731 15.5985H2.07285V17.104H7.8731V15.5985ZM0 24.0689C0 20.5502 2.091 18.1378 4.94567 18.1378C7.80033 18.1378 9.89133 20.5502 9.89133 24.0689C9.89133 27.5877 7.80033 30 4.94567 30C2.091 30 0 27.5877 0 24.0689ZM7.30334 27.5998V20.5381H2.58496V27.5998H7.30334Z" fill="black"/>
</svg>
