<svg width="25" height="25" viewBox="0 0 25 25" fill="none" xmlns="http://www.w3.org/2000/svg">
<path d="M12.5 0C5.59605 0 0 5.59605 0 12.5C0 19.4039 5.59605 25 12.5 25C19.4039 25 25 19.4039 25 12.5C25 5.59605 19.4039 0 12.5 0ZM17.0303 6.67237L15.3882 6.67368C14.1013 6.67368 13.8513 7.28553 13.8513 8.18421V10.1645H16.9224L16.9211 13.2658H13.8513V21.225H10.6474V13.2658H7.96974V10.1632H10.6474V7.87632C10.6474 5.22105 12.2697 3.77632 14.6368 3.77632L17.0289 3.78026V6.67237H17.0303Z" fill="white"/>
</svg>
