<svg width="25" height="25" viewBox="0 0 25 25" fill="none" xmlns="http://www.w3.org/2000/svg">
<path d="M12.4995 15.1436C13.9587 15.1436 15.1416 13.9607 15.1416 12.5015C15.1416 11.0423 13.9587 9.85938 12.4995 9.85938C11.0403 9.85938 9.85742 11.0423 9.85742 12.5015C9.85742 13.9607 11.0403 15.1436 12.4995 15.1436Z" fill="white"/>
<path d="M18.9526 9.29864C18.9184 8.52496 18.7881 8.10654 18.6789 7.82759C18.5513 7.48285 18.35 7.17233 18.0868 6.91575C17.8315 6.65391 17.5197 6.44996 17.1763 6.32364C16.896 6.21443 16.4763 6.0868 15.7052 6.04996C14.8684 6.01312 14.6171 6.00391 12.5013 6.00391C10.3855 6.00391 10.1342 6.01049 9.29864 6.04996C8.52496 6.08549 8.10654 6.21443 7.82759 6.32364C7.48285 6.45127 7.17101 6.65391 6.91575 6.91575C6.65391 7.17233 6.44996 7.48285 6.32364 7.82759C6.21443 8.10654 6.0868 8.52628 6.04996 9.29864C6.0118 10.1342 6.00391 10.3855 6.00391 12.5013C6.00391 14.6171 6.01048 14.8684 6.04996 15.7052C6.08549 16.4789 6.21443 16.896 6.32364 17.1763C6.45127 17.5197 6.65259 17.8315 6.91575 18.0868C7.17101 18.35 7.48285 18.5539 7.82627 18.6802C8.10654 18.7881 8.52627 18.9171 9.29864 18.9526C10.1342 18.9907 10.3855 19 12.5013 19C14.6184 19 14.8684 18.9921 15.7039 18.9526C16.4776 18.9184 16.896 18.7881 17.1763 18.6802C17.8671 18.4118 18.4131 17.8671 18.6802 17.175C18.7894 16.8947 18.9197 16.4763 18.9539 15.7039C18.9921 14.8671 19.0013 14.6157 19.0013 12.5C18.9986 10.3855 18.9907 10.1342 18.9526 9.29864ZM12.5 16.5723C10.2526 16.5723 8.42891 14.75 8.42891 12.5013C8.42891 10.2539 10.2526 8.43154 12.5 8.43154C14.7486 8.43154 16.571 10.2539 16.571 12.5013C16.571 14.75 14.7486 16.5723 12.5 16.5723ZM16.7315 9.22101C16.2065 9.22101 15.7802 8.79601 15.7802 8.2697C15.7802 7.74338 16.2065 7.31838 16.7315 7.31838C17.2579 7.31838 17.6829 7.74338 17.6829 8.2697C17.6829 8.79601 17.2565 9.22101 16.7315 9.22101Z" fill="white"/>
<path d="M12.5 0C5.59605 0 0 5.59605 0 12.5C0 19.4039 5.59605 25 12.5 25C19.4039 25 25 19.4039 25 12.5C25 5.59605 19.4039 0 12.5 0ZM20.3803 15.7684C20.3421 16.6118 20.2079 17.1882 20.0118 17.6908C19.6 18.7566 18.7579 19.5987 17.6921 20.0105C17.1882 20.2066 16.6132 20.3408 15.7697 20.3789C14.9237 20.4171 14.6539 20.4263 12.5013 20.4263C10.3487 20.4263 10.0789 20.4184 9.23421 20.3789C8.39079 20.3408 7.81316 20.2066 7.30921 20.0105C6.78026 19.8118 6.30132 19.5 5.90526 19.0947C5.50263 18.7 5.19079 18.2211 4.99079 17.6908C4.79474 17.1868 4.66053 16.6118 4.62237 15.7684C4.58421 14.9224 4.57368 14.6526 4.57368 12.5C4.57368 10.3474 4.58289 10.0776 4.62237 9.23289C4.65921 8.38816 4.79342 7.81184 4.98947 7.3079C5.18947 6.77895 5.50132 6.3 5.90526 5.90395C6.30132 5.50132 6.78026 5.18947 7.30921 4.98816C7.81316 4.79342 8.38816 4.65921 9.23421 4.62105C10.0789 4.58289 10.35 4.57237 12.5013 4.57237C14.6553 4.57237 14.9237 4.58158 15.7697 4.62105C16.6132 4.65921 17.1895 4.79342 17.6921 4.98816C18.2224 5.18816 18.7013 5.5 19.0974 5.90395C19.5 6.3 19.8118 6.77895 20.0118 7.3079C20.2079 7.81184 20.3421 8.38684 20.3803 9.23289C20.4184 10.0776 20.4276 10.3487 20.4276 12.5C20.4263 14.6539 20.4184 14.9224 20.3803 15.7684Z" fill="white"/>
</svg>
