<svg width="25" height="25" viewBox="0 0 25 25" fill="none" xmlns="http://www.w3.org/2000/svg">
<path d="M12.5 0C5.59605 0 0 5.59605 0 12.5C0 19.4039 5.59605 25 12.5 25C19.4039 25 25 19.4039 25 12.5C25 5.59605 19.4039 0 12.5 0ZM20.5539 20.5395H17.2171V15.3158C17.2171 14.0711 17.1947 12.4684 15.4816 12.4684C13.7447 12.4684 13.4776 13.825 13.4776 15.2263V20.5395H10.1434V9.79869H13.3461V11.2658H13.3908C13.8355 10.4224 14.925 9.53158 16.5487 9.53158C19.9303 9.53158 20.5539 11.7553 20.5539 14.6474V20.5395ZM6.38158 4.46053C7.44868 4.46053 8.31711 5.32763 8.31711 6.39605C8.31711 7.46447 7.45 8.3329 6.38158 8.3329C5.31184 8.3329 4.44474 7.46579 4.44474 6.39605C4.44605 5.32763 5.31184 4.46053 6.38158 4.46053ZM8.05 9.79869V20.5395H4.71316V9.79869H8.05Z" fill="white"/>
</svg>
