<svg width="35" height="35" viewBox="0 0 35 35" fill="none" xmlns="http://www.w3.org/2000/svg">
<circle cx="17.5" cy="17.5" r="17.5" fill="#7DCA91"/>
<path d="M28 16.4554C27.9953 12.3391 24.7916 9.00486 20.8367 9H14.1633C10.206 9 7 12.3367 7 16.4554C7 20.5741 10.206 23.9108 14.1633 23.9108H19.7213L24.934 27.8012C25.2863 28.0683 25.7646 28.0659 26.1146 27.7963C26.4693 27.534 26.6186 27.0629 26.4833 26.6306L25.2046 22.3663C25.4496 22.1696 25.683 21.9559 25.9023 21.7276C27.2486 20.3312 28.0046 18.4346 28 16.4554ZM25.2326 26.5286L20.0947 22.6965H14.1633C10.8523 22.6965 8.16667 19.9038 8.16667 16.4554C8.16667 13.007 10.85 10.2142 14.161 10.2142H14.1633H20.8367C24.1523 10.2215 26.8333 13.024 26.8263 16.4748C26.8216 18.539 25.837 20.4696 24.1966 21.628L23.8373 21.8806L25.2326 26.5286Z" fill="#245B50"/>
<circle cx="13" cy="17" r="1" fill="#245B50"/>
<circle cx="17" cy="17" r="1" fill="#245B50"/>
<circle cx="21" cy="17" r="1" fill="#245B50"/>
</svg>
