<svg width="25" height="25" viewBox="0 0 25 25" fill="none" xmlns="http://www.w3.org/2000/svg">
<path d="M12.5 0C5.59605 0 0 5.59605 0 12.5C0 19.4039 5.59605 25 12.5 25C19.4039 25 25 19.4039 25 12.5C25 5.59605 19.4039 0 12.5 0ZM19.6895 9.75526C19.6895 14.8276 15.8289 20.075 9.36974 20.075C7.39474 20.075 5.47237 19.5118 3.80921 18.4447C3.77368 18.4224 3.76053 18.3803 3.77368 18.3408C3.78684 18.3013 3.82632 18.2789 3.86579 18.2829C4.14605 18.3158 4.43026 18.3329 4.71316 18.3329C6.25 18.3329 7.70395 17.8579 8.93421 16.9566C7.45921 16.8316 6.19211 15.8342 5.73684 14.4105C5.72632 14.3803 5.73421 14.3474 5.75395 14.325C5.77368 14.3013 5.80658 14.2908 5.83684 14.2961C6.24605 14.3737 6.66053 14.3789 7.06053 14.3132C5.54211 13.8421 4.47368 12.4184 4.47368 10.7961V10.75C4.475 10.7184 4.49079 10.6895 4.51842 10.675C4.54474 10.6605 4.57763 10.6592 4.60526 10.6737C5.00132 10.8947 5.44079 11.0355 5.89079 11.0895C5.01711 10.3934 4.50395 9.33684 4.50395 8.20658C4.50395 7.55526 4.67632 6.91579 5.00395 6.35526C5.01711 6.33026 5.04342 6.31447 5.07237 6.31184C5.10132 6.30921 5.12895 6.32237 5.14737 6.34474C6.93553 8.53816 9.56579 9.88947 12.3803 10.0632C12.3329 9.82632 12.3092 9.5829 12.3092 9.33684C12.3092 7.30526 13.9618 5.65263 15.9934 5.65263C16.9921 5.65263 17.9566 6.06447 18.6487 6.78026C19.4289 6.62105 20.1711 6.33553 20.8579 5.92895C20.8895 5.91053 20.9289 5.91316 20.9579 5.93553C20.9855 5.95789 20.9974 5.99737 20.9868 6.03158C20.7539 6.75789 20.3 7.39342 19.6921 7.85C20.2658 7.75 20.8224 7.58158 21.3526 7.34737C21.3882 7.33026 21.4303 7.34079 21.4553 7.37105C21.4803 7.40132 21.4829 7.44342 21.4618 7.47632C20.9789 8.19868 20.3816 8.82237 19.6842 9.3329C19.6868 9.47368 19.6895 9.61316 19.6895 9.75526Z" fill="white"/>
</svg>
