<svg width="94" height="30" viewBox="0 0 94 30" fill="none" xmlns="http://www.w3.org/2000/svg">
<path fill-rule="evenodd" clip-rule="evenodd" d="M73.676 7.88996C74.4196 9.28657 75.8162 10.0121 77.2673 10.0121C78.6095 10.0121 79.5345 9.48609 79.5345 8.48851C79.5345 7.65417 78.8997 7.3821 78.029 7.16445L75.7255 6.63845C74.1294 6.27569 72.8779 5.38694 72.8779 3.48247C72.8779 1.41475 74.5103 0 76.9408 0C78.9722 0 80.4595 0.906892 81.3483 2.17654L79.9335 3.66384C79.3894 2.62999 78.4099 1.85006 76.9408 1.85006C75.7981 1.85006 75 2.3942 75 3.33736C75 4.15357 75.6167 4.4075 76.451 4.60701L78.5732 5.11487C80.5321 5.56832 81.6748 6.47521 81.6748 8.39782C81.6748 10.6106 79.734 11.8621 77.2673 11.8621C75.1089 11.8621 73.3313 10.9915 72.3519 9.5405L73.676 7.88996ZM15.6348 11.6445L11.9165 0.217661H14.3833L17.0133 8.88755H17.0858L19.6795 0.217661H22.0374L18.3192 11.6445H15.6348ZM33.3374 11.6445H25.1572V0.217661H33.1741V2.15841H27.4063V4.82467H31.4873V6.74729H27.4063V9.70375H33.3374V11.6445ZM43.4765 0.217661V8.05321L39.2685 0.217661H36.5841V11.6445H38.6518V2.95648L43.4583 11.6445H45.5442V0.217661H43.4765ZM48.5913 7.03749V0.217661H50.8767V6.74729C50.8767 8.815 51.5115 9.92141 53.1076 9.92141C54.7038 9.92141 55.3386 8.815 55.3386 6.74729V0.217661H57.6239V7.03749C57.6239 10.3749 55.6288 11.8622 53.1076 11.8622C50.5683 11.8622 48.5913 10.3749 48.5913 7.03749ZM61.2878 11.6445H69.4679V9.70375H63.5369V6.74729H67.6179V4.82467H63.5369V2.15841H69.3047V0.217661H61.2878V11.6445ZM15.8161 20.3507V29.7823H18.0833V20.3507H21.9104V18.3555H12.0434V20.3507H15.8161ZM30.8706 26.971H27.0435L26.191 29.7823H23.9601L27.6239 18.3555H30.4172L34.081 29.7823H31.7231L30.8706 26.971ZM27.5877 25.2116H30.3265L28.9843 20.8222H28.9117L27.5877 25.2116ZM36.5477 18.3555V25.1753C36.5477 28.5127 38.5247 30 41.064 30C43.5852 30 45.5803 28.5127 45.5803 25.1753V18.3555H43.295V24.8851C43.295 26.9528 42.6602 28.0592 41.064 28.0592C39.4679 28.0592 38.8331 26.9528 38.8331 24.8851V18.3555H36.5477ZM51.9468 29.7823V20.3507H48.1741V18.3555H58.0411V20.3507H54.214V29.7823H51.9468ZM63.1741 26.971H67.0012L67.8537 29.7823H70.2116L66.5477 18.3555H63.7545L60.0907 29.7823H62.3216L63.1741 26.971ZM66.4571 25.2116H63.7182L65.0423 20.8222H65.1149L66.4571 25.2116ZM72.7146 29.7823V18.3555H75V22.9081H79.3894V18.3555H81.6748V29.7823H79.3894V24.8851H75V29.7823H72.7146ZM85.0483 27.8053V29.7823H93.428V27.8053H90.3809V20.3325H93.428V18.3555H85.0483V20.3325H88.0955V27.8053H85.0483ZM7.85372 15.5985H2.06775V17.104H7.85372V15.5985ZM0 24.0689C0 20.5502 2.08585 18.1378 4.93349 18.1378C7.78113 18.1378 9.86699 20.5502 9.86699 24.0689C9.86699 27.5877 7.78113 30 4.93349 30C2.08585 30 0 27.5877 0 24.0689ZM7.28537 27.5998V20.5381H2.5786V27.5998H7.28537Z" fill="white"/>
</svg>
